<?xml version="1.0" standalone="no"?>
<!DOCTYPE svg PUBLIC "-//W3C//DTD SVG 20010904//EN"
 "http://www.w3.org/TR/2001/REC-SVG-20010904/DTD/svg10.dtd">
<svg version="1.0" xmlns="http://www.w3.org/2000/svg"
 width="512.000000pt" height="512.000000pt" viewBox="0 0 512.000000 512.000000"
 preserveAspectRatio="xMidYMid meet">

<g transform="translate(0.000000,512.000000) scale(0.100000,-0.100000)"
fill="rgba(0,0,0, 0.2)" stroke="none">
<path d="M2523 5108 c-64 -31 -55 -217 11 -234 14 -3 38 -3 52 0 68 17 74 204
8 235 -30 13 -42 13 -71 -1z"/>
<path d="M2010 4890 c-12 -12 -20 -33 -20 -53 0 -28 10 -43 59 -90 33 -32 66
-57 75 -57 30 0 65 23 76 49 15 38 2 67 -58 124 -57 53 -98 61 -132 27z"/>
<path d="M2978 4863 c-60 -57 -73 -86 -58 -124 11 -26 46 -49 76 -49 9 0 42
25 75 57 49 47 59 62 59 90 0 42 -30 73 -70 73 -23 0 -44 -12 -82 -47z"/>
<path d="M2498 4710 c-201 -34 -344 -234 -308 -432 23 -127 100 -226 218 -281
59 -27 78 -31 152 -31 74 0 93 4 152 31 194 91 274 305 188 499 -66 150 -238
241 -402 214z m157 -168 c195 -95 162 -375 -50 -423 -71 -16 -147 6 -199 57
-49 48 -69 95 -69 164 -1 163 174 273 318 202z"/>
<path d="M1802 4387 c-39 -41 -25 -97 29 -116 40 -14 109 -14 145 -1 56 22 71
80 31 118 -20 19 -35 22 -103 22 -71 0 -83 -3 -102 -23z"/>
<path d="M3112 4387 c-39 -41 -23 -96 32 -117 36 -13 105 -13 145 1 54 19 69
79 28 117 -20 19 -35 22 -103 22 -71 0 -83 -3 -102 -23z"/>
<path d="M2105 3981 c-11 -5 -41 -31 -67 -59 -54 -58 -62 -98 -28 -132 37 -37
79 -27 137 33 64 64 73 95 41 130 -27 30 -55 39 -83 28z"/>
<path d="M2963 3980 c-32 -13 -56 -54 -48 -82 4 -13 30 -47 58 -75 58 -60 100
-70 137 -33 36 36 26 75 -32 135 -57 57 -80 69 -115 55z"/>
<path d="M2515 3787 c-21 -18 -28 -34 -32 -82 -9 -105 30 -159 103 -141 60 15
74 176 19 223 -14 13 -35 23 -45 23 -10 0 -31 -10 -45 -23z"/>
<path d="M931 3241 c-13 -3 -32 -18 -42 -31 -11 -16 -87 -355 -218 -983 l-201
-957 0 -173 c0 -168 1 -174 23 -195 l23 -22 907 0 907 0 0 -215 0 -215 -303 0
-304 0 -21 -23 c-20 -21 -22 -34 -22 -150 l0 -127 -378 0 c-409 0 -412 0 -426
-55 -7 -29 15 -79 39 -89 22 -8 3268 -8 3290 0 24 10 46 60 39 89 -14 55 -17
55 -426 55 l-378 0 0 128 c0 186 29 172 -348 172 l-302 0 0 215 0 215 908 0
909 0 21 23 c21 22 22 32 22 198 l-1 174 -203 963 c-172 820 -206 966 -225
985 l-22 22 -1622 2 c-892 0 -1633 -2 -1646 -6z m1009 -173 c0 -13 -7 -106
-15 -208 -8 -102 -15 -200 -15 -217 l0 -33 -500 0 c-308 0 -500 4 -500 9 0 11
89 440 95 459 3 9 106 12 470 12 l465 0 0 -22z m1090 -10 c0 -18 7 -116 15
-218 8 -102 15 -195 15 -207 l0 -23 -500 0 c-470 0 -500 1 -500 18 0 9 7 107
15 217 8 110 15 210 15 223 l0 22 470 0 470 0 0 -32z m1131 -198 c27 -124 48
-231 49 -237 0 -10 -106 -13 -500 -13 l-500 0 0 33 c0 17 -7 115 -15 217 -8
102 -15 195 -15 208 l0 22 467 -2 467 -3 47 -225z m-2268 -407 c3 -6 -28 -468
-32 -480 -1 -2 -247 -3 -547 -3 -515 0 -545 1 -540 18 3 9 26 116 51 237 26
121 49 223 51 227 7 10 1012 10 1017 1z m1181 -35 c3 -24 10 -122 16 -218 6
-96 13 -187 15 -202 l5 -28 -550 0 -549 0 4 28 c2 15 9 106 15 202 6 96 13
194 16 218 l5 42 509 0 509 0 5 -42z m1170 34 c2 -4 25 -106 51 -227 25 -121
48 -228 51 -237 5 -17 -25 -18 -540 -18 -300 0 -546 1 -547 3 -4 12 -35 474
-32 480 5 9 1010 9 1017 -1z m-2394 -654 c0 -13 -7 -113 -15 -223 -8 -110 -15
-210 -15 -222 l0 -23 -270 0 -271 0 -24 -25 c-14 -13 -25 -36 -25 -50 0 -14
11 -37 25 -50 l24 -25 1611 0 1610 0 0 -75 0 -75 -1940 0 -1940 0 0 75 0 75
192 0 c183 0 193 1 215 22 33 30 31 80 -3 107 -25 19 -40 21 -205 21 -99 0
-179 4 -179 8 0 8 80 395 95 460 l5 22 555 0 555 0 0 -22z m1279 -150 c6 -95
14 -206 18 -245 l6 -73 -593 0 -593 0 6 73 c4 39 12 150 18 245 l12 172 557 0
557 0 12 -172z m1256 150 c15 -65 95 -452 95 -460 0 -4 -265 -8 -590 -8 l-590
0 0 23 c0 12 -7 112 -15 222 -8 110 -15 210 -15 223 l0 22 555 0 555 0 5 -22z
m-1750 -1133 l0 -210 -75 0 -75 0 -3 200 c-1 110 0 205 3 213 3 9 24 12 77 10
l73 -3 0 -210z m655 -440 l0 -75 -730 0 -730 0 0 75 0 75 730 0 730 0 0 -75z"/>
</g>
</svg>
