<svg id="svg" version="1.1" xmlns="http://www.w3.org/2000/svg" xmlns:xlink="http://www.w3.org/1999/xlink" width="400" height="400" viewBox="0, 0, 400,400"><g id="svgg"><path id="path0" d="M66.867 90.682 C 66.134 90.983,65.650 91.043,65.791 90.814 C 65.932 90.586,65.857 90.400,65.624 90.400 C 65.391 90.400,65.200 90.580,65.200 90.800 C 65.200 91.020,65.065 91.179,64.900 91.153 C 64.013 91.013,63.406 91.410,61.179 93.588 C 59.607 95.127,58.843 96.159,59.033 96.488 C 59.196 96.770,59.190 96.876,59.022 96.724 C 58.652 96.392,57.607 97.273,57.866 97.700 C 57.965 97.865,57.846 98.000,57.600 98.000 C 57.354 98.000,57.265 98.181,57.402 98.403 C 57.539 98.624,57.381 98.909,57.051 99.036 C 56.699 99.171,56.551 99.528,56.693 99.899 C 56.868 100.354,56.786 100.439,56.400 100.200 C 56.010 99.959,55.933 100.047,56.115 100.524 C 56.254 100.884,56.133 101.319,55.848 101.489 C 55.084 101.947,54.345 104.319,54.867 104.641 C 55.143 104.812,55.111 105.008,54.772 105.217 C 54.071 105.650,53.852 109.782,54.470 110.905 C 54.741 111.397,54.990 111.980,55.024 112.200 C 55.174 113.185,55.722 114.400,56.015 114.400 C 56.192 114.400,56.457 114.950,56.605 115.622 C 56.753 116.295,57.575 117.600,58.432 118.522 C 59.289 119.445,59.992 120.380,59.995 120.600 C 60.002 121.110,62.965 124.000,63.481 124.000 C 63.694 124.000,65.023 125.089,66.434 126.419 C 71.371 131.073,72.634 132.206,73.770 133.000 C 74.400 133.440,75.276 134.199,75.718 134.686 C 76.159 135.174,76.678 135.475,76.870 135.357 C 77.062 135.238,77.194 135.289,77.163 135.470 C 77.022 136.279,77.245 136.549,77.600 136.000 C 77.909 135.522,77.989 135.513,77.994 135.954 C 78.002 136.650,79.942 138.483,80.382 138.211 C 80.562 138.100,80.932 138.277,81.204 138.604 C 81.476 138.932,82.036 139.200,82.449 139.200 C 82.862 139.200,83.200 139.358,83.200 139.551 C 83.200 139.978,86.413 140.839,86.893 140.542 C 87.081 140.426,87.452 140.502,87.718 140.712 C 88.498 141.328,90.531 141.558,91.344 141.123 C 91.917 140.816,92.023 140.840,91.787 141.221 C 91.368 141.899,96.304 141.472,96.946 140.775 C 97.289 140.404,97.277 140.352,96.900 140.565 C 96.625 140.720,96.400 140.644,96.400 140.397 C 96.400 140.132,96.722 140.048,97.180 140.194 C 98.719 140.682,103.218 137.102,104.082 134.700 C 104.300 134.095,104.651 133.600,104.863 133.600 C 105.074 133.600,105.148 133.439,105.026 133.242 C 104.904 133.045,105.074 132.781,105.402 132.654 C 105.731 132.528,106.000 132.059,106.000 131.613 C 106.000 131.166,106.169 130.800,106.375 130.800 C 106.581 130.800,106.758 130.485,106.768 130.100 C 106.778 129.715,106.836 128.365,106.898 127.100 C 106.959 125.835,106.914 124.800,106.797 124.800 C 106.681 124.800,106.614 124.205,106.648 123.478 C 106.727 121.801,104.960 116.321,104.204 115.898 C 103.890 115.723,103.735 115.314,103.859 114.989 C 103.984 114.665,103.876 114.400,103.619 114.400 C 103.363 114.400,103.258 114.229,103.388 114.020 C 103.517 113.811,103.257 113.445,102.811 113.206 C 102.365 112.967,102.000 112.598,102.000 112.386 C 102.000 112.174,101.640 111.595,101.200 111.100 C 100.760 110.605,100.166 109.930,99.880 109.600 C 99.134 108.738,95.925 105.939,94.608 105.000 C 93.990 104.560,92.902 103.705,92.189 103.100 C 91.477 102.495,90.683 102.000,90.424 102.000 C 90.165 102.000,90.054 101.836,90.179 101.635 C 90.303 101.434,89.876 101.035,89.231 100.750 C 88.586 100.464,88.137 100.102,88.234 99.946 C 88.330 99.789,87.822 99.248,87.105 98.744 C 86.387 98.239,85.562 97.595,85.271 97.313 C 84.981 97.031,84.486 96.800,84.171 96.800 C 83.857 96.800,83.645 96.583,83.700 96.318 C 83.755 96.053,83.575 95.806,83.300 95.768 C 83.025 95.731,82.620 95.678,82.400 95.650 C 82.180 95.623,82.045 95.465,82.100 95.300 C 82.155 95.135,82.051 94.967,81.870 94.926 C 81.688 94.886,81.220 94.484,80.829 94.034 C 80.438 93.583,80.002 93.331,79.859 93.474 C 79.717 93.617,79.600 93.535,79.600 93.294 C 79.600 92.932,78.876 92.531,77.600 92.185 C 77.490 92.155,77.130 92.032,76.800 91.911 C 75.364 91.385,72.519 90.646,71.600 90.559 C 71.050 90.508,70.060 90.391,69.400 90.300 C 68.740 90.209,67.600 90.381,66.867 90.682 M165.527 117.002 C 165.377 117.155,164.657 117.334,163.927 117.399 C 160.918 117.671,158.579 118.083,158.251 118.400 C 158.059 118.586,157.673 118.649,157.392 118.541 C 157.111 118.434,156.767 118.530,156.628 118.755 C 156.488 118.981,156.110 119.064,155.787 118.940 C 155.464 118.816,155.200 118.924,155.200 119.181 C 155.200 119.437,155.042 119.550,154.850 119.431 C 154.485 119.205,149.539 120.770,147.340 121.806 C 146.646 122.133,145.881 122.400,145.640 122.400 C 145.398 122.400,145.200 122.591,145.200 122.824 C 145.200 123.057,145.037 123.147,144.839 123.024 C 143.801 122.382,127.097 131.507,123.981 134.417 C 123.285 135.068,122.576 135.600,122.406 135.600 C 121.534 135.600,108.828 148.905,108.809 149.838 C 108.804 150.079,108.440 150.602,108.000 151.000 C 107.560 151.398,107.200 151.966,107.200 152.262 C 107.200 152.558,107.061 152.800,106.891 152.800 C 106.529 152.800,105.077 155.394,104.949 156.270 C 104.900 156.600,104.577 157.184,104.230 157.567 C 103.884 157.950,103.600 158.549,103.600 158.898 C 103.600 159.248,103.425 159.593,103.212 159.667 C 102.998 159.740,102.768 160.160,102.700 160.600 C 102.632 161.040,102.438 161.623,102.268 161.895 C 101.791 162.659,99.621 168.800,99.828 168.800 C 99.928 168.800,99.736 169.458,99.400 170.261 C 99.064 171.065,98.880 171.814,98.991 171.925 C 99.102 172.036,98.993 172.368,98.748 172.663 C 98.503 172.958,98.405 173.200,98.532 173.200 C 98.658 173.200,98.521 174.000,98.226 174.979 C 97.932 175.957,97.766 176.832,97.857 176.923 C 97.948 177.014,97.853 177.534,97.646 178.078 C 97.282 179.037,96.910 180.939,96.607 183.400 C 96.526 184.060,96.315 185.770,96.139 187.200 C 95.433 192.915,95.895 212.923,96.748 213.600 C 96.887 213.710,97.056 214.558,97.125 215.484 C 97.194 216.410,97.696 218.750,98.240 220.684 C 98.785 222.618,99.397 224.830,99.600 225.600 C 99.804 226.370,100.337 227.713,100.785 228.585 C 101.233 229.456,101.600 230.491,101.600 230.885 C 101.600 231.278,101.738 231.600,101.906 231.600 C 102.074 231.600,102.529 232.492,102.916 233.581 C 103.303 234.671,103.898 235.841,104.238 236.181 C 104.579 236.522,104.733 236.800,104.581 236.800 C 104.429 236.800,104.776 237.418,105.353 238.173 C 105.929 238.929,106.400 239.656,106.400 239.790 C 106.400 240.177,109.664 244.527,110.535 245.300 C 110.968 245.685,111.211 246.000,111.075 246.000 C 110.938 246.000,111.316 246.530,111.913 247.178 C 112.511 247.826,113.180 248.591,113.400 248.878 C 114.944 250.891,115.946 251.921,116.156 251.711 C 116.290 251.577,116.400 251.679,116.400 251.939 C 116.400 252.199,117.930 253.973,119.800 255.881 C 121.670 257.789,123.200 259.198,123.200 259.011 C 123.200 258.824,123.750 259.315,124.423 260.102 C 125.095 260.890,126.670 262.224,127.923 263.067 C 129.175 263.910,130.290 264.699,130.400 264.819 C 131.032 265.512,133.218 266.800,133.762 266.800 C 134.113 266.800,134.400 266.980,134.400 267.200 C 134.400 267.420,134.611 267.600,134.869 267.600 C 135.126 267.600,135.650 267.884,136.033 268.230 C 136.416 268.577,136.971 268.902,137.265 268.952 C 137.559 269.002,139.028 269.619,140.528 270.322 C 142.028 271.025,143.483 271.600,143.761 271.600 C 144.039 271.600,144.402 271.735,144.567 271.900 C 144.732 272.065,144.987 272.215,145.133 272.233 C 145.940 272.331,147.828 272.960,148.000 273.188 C 148.323 273.615,152.885 274.795,153.277 274.553 C 153.474 274.431,153.897 274.549,154.218 274.815 C 154.538 275.080,154.800 275.164,154.800 275.000 C 154.800 274.836,155.031 274.894,155.314 275.129 C 155.597 275.364,156.867 275.668,158.135 275.805 C 159.404 275.942,160.837 276.151,161.321 276.270 C 163.600 276.831,172.484 277.514,175.600 277.368 C 179.784 277.171,183.270 276.833,184.167 276.535 C 184.625 276.383,185.270 276.208,185.600 276.146 C 188.044 275.688,193.437 274.301,194.050 273.973 C 194.462 273.752,194.800 273.672,194.800 273.794 C 194.800 273.916,195.513 273.653,196.384 273.208 C 197.255 272.764,198.133 272.400,198.335 272.400 C 198.537 272.400,199.353 272.128,200.149 271.795 C 200.945 271.463,201.685 271.189,201.794 271.188 C 201.968 271.185,205.939 269.105,209.400 267.204 C 212.147 265.695,216.000 263.084,216.000 262.732 C 216.000 262.523,216.181 262.465,216.403 262.602 C 216.624 262.739,216.914 262.569,217.046 262.225 C 217.178 261.881,217.527 261.600,217.823 261.600 C 218.118 261.600,218.504 261.369,218.680 261.086 C 218.856 260.804,219.990 259.869,221.200 259.010 C 222.410 258.151,223.682 257.167,224.026 256.824 C 224.370 256.481,225.344 255.660,226.190 255.000 C 229.644 252.306,236.249 245.984,236.100 245.515 C 236.045 245.342,236.225 245.245,236.500 245.300 C 236.775 245.355,236.975 245.085,236.944 244.700 C 236.914 244.315,237.150 244.000,237.468 244.000 C 237.787 244.000,237.936 243.820,237.800 243.600 C 237.664 243.380,237.731 243.200,237.949 243.200 C 238.168 243.200,238.448 242.885,238.572 242.500 C 238.826 241.712,240.961 240.332,242.247 240.124 C 243.402 239.937,247.397 242.098,248.651 243.587 C 249.213 244.255,249.849 244.694,250.063 244.561 C 250.278 244.428,250.553 244.698,250.674 245.160 C 250.794 245.622,251.052 246.000,251.247 246.000 C 251.441 246.000,251.600 246.230,251.600 246.511 C 251.600 246.792,251.915 247.310,252.300 247.661 C 253.600 248.848,255.405 250.961,254.809 250.599 C 253.877 250.033,257.524 254.325,260.503 257.300 C 261.990 258.785,263.395 260.000,263.627 260.000 C 263.858 260.000,263.954 260.150,263.841 260.334 C 263.616 260.699,268.144 264.226,270.400 265.444 C 271.170 265.860,272.226 266.513,272.747 266.895 C 273.268 267.277,273.853 267.491,274.047 267.371 C 274.241 267.251,274.400 267.319,274.400 267.522 C 274.400 267.851,278.583 269.933,279.743 270.181 C 280.220 270.283,281.238 270.645,282.600 271.196 C 283.406 271.522,287.685 272.838,288.800 273.103 C 289.130 273.182,289.760 273.320,290.200 273.410 C 291.382 273.653,292.128 273.852,292.800 274.105 C 293.563 274.392,297.453 275.110,302.400 275.877 C 307.891 276.728,312.363 276.030,314.161 274.043 C 314.920 273.204,315.610 263.299,314.878 263.751 C 314.638 263.900,314.535 253.340,314.772 252.800 C 314.820 252.690,314.941 252.158,315.040 251.617 C 315.139 251.077,315.361 250.537,315.533 250.417 C 315.705 250.298,316.146 249.762,316.512 249.227 C 317.127 248.328,317.462 248.246,320.889 248.155 C 322.930 248.101,324.780 248.049,325.000 248.039 C 327.600 247.929,362.949 248.419,365.100 248.595 C 367.325 248.778,368.001 248.713,368.006 248.317 C 368.011 247.942,368.093 247.928,368.307 248.263 C 368.660 248.817,370.800 248.494,370.800 247.887 C 370.800 247.656,370.917 247.583,371.059 247.726 C 371.733 248.399,374.683 243.314,374.259 242.210 C 374.147 241.917,374.171 241.562,374.313 241.420 C 374.949 240.784,375.262 221.680,374.667 219.800 C 374.017 217.749,371.073 215.619,368.600 215.412 C 368.380 215.394,367.977 215.239,367.704 215.068 C 367.431 214.898,365.271 214.776,362.904 214.797 C 350.049 214.916,328.697 214.783,328.374 214.584 C 328.168 214.457,327.997 214.588,327.994 214.876 C 327.990 215.215,327.884 215.251,327.694 214.980 C 327.342 214.476,318.744 214.385,319.055 214.889 C 319.170 215.076,318.684 214.992,317.973 214.702 C 316.012 213.901,315.594 211.948,315.771 204.401 C 315.871 200.140,315.773 198.020,315.458 197.623 C 315.110 197.185,315.114 197.115,315.476 197.332 C 315.769 197.508,315.965 197.345,315.986 196.909 C 316.228 191.905,316.331 190.200,316.390 190.200 C 316.429 190.200,316.526 189.840,316.605 189.400 C 316.767 188.494,319.454 186.000,320.267 186.000 C 320.560 186.000,320.800 185.850,320.800 185.667 C 320.800 185.483,321.025 185.305,321.300 185.270 C 322.169 185.161,323.792 184.870,324.000 184.786 C 324.110 184.742,324.380 184.751,324.600 184.808 C 324.820 184.864,334.450 184.975,346.000 185.055 C 357.550 185.135,367.630 185.218,368.400 185.239 C 372.026 185.341,375.860 183.860,376.061 182.280 C 376.189 181.273,376.256 180.973,376.557 180.081 C 376.755 179.492,376.675 178.925,376.333 178.504 C 376.040 178.142,376.002 177.967,376.249 178.115 C 376.561 178.302,376.669 177.774,376.603 176.382 C 376.552 175.281,376.665 174.284,376.855 174.166 C 377.333 173.870,377.289 171.702,376.799 171.399 C 376.578 171.263,376.507 170.712,376.642 170.175 C 376.797 169.559,376.715 169.200,376.420 169.200 C 376.159 169.200,376.084 168.988,376.248 168.722 C 376.743 167.922,376.744 164.801,376.249 164.794 C 375.987 164.790,376.026 164.645,376.343 164.444 C 376.653 164.247,376.722 163.999,376.504 163.864 C 376.294 163.734,376.171 162.499,376.229 161.118 C 376.297 159.528,376.165 158.499,375.868 158.310 C 375.525 158.092,375.538 158.011,375.918 158.006 C 376.300 158.002,376.362 157.606,376.153 156.500 C 375.997 155.675,375.836 154.640,375.795 154.200 C 375.634 152.470,374.249 149.744,373.610 149.900 C 373.385 149.955,373.200 149.810,373.200 149.578 C 373.200 149.046,369.720 147.478,369.223 147.786 C 369.021 147.911,368.752 147.846,368.626 147.642 C 368.500 147.438,367.943 147.321,367.389 147.381 C 366.834 147.442,366.294 147.353,366.189 147.182 C 366.030 146.925,363.306 146.732,359.400 146.703 C 358.960 146.700,353.200 146.810,346.600 146.947 C 340.000 147.085,331.805 147.253,328.390 147.320 C 324.974 147.387,321.959 147.578,321.690 147.744 C 321.420 147.911,321.200 147.857,321.200 147.624 C 321.200 147.391,320.660 147.200,320.000 147.200 C 319.340 147.200,318.800 147.380,318.800 147.600 C 318.800 147.820,318.609 148.000,318.376 148.000 C 318.143 148.000,318.064 147.820,318.200 147.600 C 318.336 147.380,318.156 147.200,317.800 147.200 C 317.389 147.200,317.262 147.382,317.453 147.700 C 317.671 148.063,317.574 148.055,317.101 147.671 C 316.742 147.380,316.122 147.175,315.724 147.217 C 315.326 147.258,314.820 147.271,314.600 147.246 C 314.155 147.194,311.735 145.200,312.117 145.200 C 312.250 145.200,312.073 144.525,311.722 143.700 C 310.777 141.473,310.037 129.600,310.844 129.600 C 311.324 129.600,310.976 122.632,310.448 121.668 C 308.604 118.300,304.392 116.976,299.000 118.069 C 297.900 118.292,296.730 118.473,296.400 118.471 C 296.070 118.469,295.530 118.567,295.200 118.689 C 294.870 118.811,294.330 118.966,294.000 119.034 C 291.228 119.603,289.483 120.088,287.600 120.815 C 286.390 121.281,284.815 121.838,284.100 122.051 C 283.385 122.263,282.800 122.620,282.800 122.842 C 282.800 123.065,282.659 123.160,282.487 123.054 C 281.677 122.553,268.400 129.915,268.400 130.865 C 268.400 131.075,268.252 131.156,268.071 131.044 C 267.891 130.932,267.453 131.147,267.099 131.520 C 266.170 132.503,265.200 133.266,265.200 133.016 C 265.200 132.746,264.035 133.730,261.907 135.800 C 261.002 136.680,260.411 137.130,260.595 136.800 C 260.974 136.117,254.817 142.296,253.012 144.409 C 251.139 146.602,249.200 149.131,249.200 149.380 C 249.200 149.505,248.660 150.172,248.000 150.863 C 247.340 151.554,246.800 152.362,246.800 152.659 C 246.800 152.957,246.642 153.200,246.449 153.200 C 246.255 153.200,245.873 153.740,245.600 154.400 C 245.327 155.060,244.950 155.600,244.762 155.600 C 244.575 155.600,243.562 157.057,242.511 158.839 C 241.460 160.620,240.240 162.687,239.800 163.431 C 239.360 164.176,238.325 165.881,237.501 167.220 C 236.676 168.559,235.892 170.093,235.757 170.627 C 235.623 171.162,235.365 171.600,235.184 171.600 C 235.002 171.600,234.728 172.005,234.573 172.500 C 234.419 172.995,234.163 173.490,234.004 173.600 C 233.656 173.842,229.972 181.488,230.029 181.853 C 230.050 181.994,229.904 182.221,229.704 182.355 C 229.212 182.686,224.367 192.400,224.694 192.400 C 224.837 192.400,224.638 192.630,224.254 192.911 C 223.870 193.192,223.513 193.687,223.462 194.011 C 223.411 194.335,223.079 195.050,222.726 195.600 C 222.373 196.150,221.950 197.050,221.788 197.600 C 221.625 198.150,221.375 198.690,221.231 198.800 C 221.087 198.910,220.325 200.260,219.537 201.800 C 218.749 203.340,217.636 205.455,217.064 206.500 C 216.491 207.545,216.152 208.403,216.311 208.406 C 216.470 208.409,216.413 208.544,216.185 208.706 C 215.684 209.061,212.717 214.800,213.034 214.800 C 213.157 214.800,212.885 215.274,212.429 215.854 C 211.973 216.434,211.600 217.249,211.600 217.666 C 211.600 218.084,211.337 218.526,211.015 218.650 C 210.450 218.866,209.759 220.287,209.921 220.900 C 209.964 221.065,209.820 221.200,209.600 221.200 C 209.380 221.200,209.200 221.455,209.200 221.766 C 209.200 222.077,208.660 222.842,208.000 223.465 C 207.340 224.088,206.800 224.823,206.800 225.099 C 206.800 225.374,206.560 225.600,206.266 225.600 C 205.972 225.600,205.252 226.095,204.664 226.700 C 203.025 228.388,202.037 229.200,201.623 229.200 C 201.415 229.200,201.010 229.536,200.723 229.946 C 200.435 230.357,200.063 230.714,199.896 230.740 C 199.574 230.790,197.539 232.036,197.200 232.391 C 196.509 233.113,188.172 237.359,186.200 237.991 C 185.320 238.274,184.420 238.611,184.200 238.741 C 183.980 238.871,183.620 239.017,183.400 239.065 C 177.660 240.326,176.386 240.500,172.800 240.514 C 165.794 240.542,149.640 235.600,146.439 232.449 C 146.076 232.092,145.236 231.348,144.573 230.796 C 143.193 229.647,139.200 224.620,139.200 224.031 C 139.200 223.816,138.955 223.496,138.655 223.320 C 138.078 222.981,136.437 219.611,134.118 214.000 C 133.345 212.130,132.576 210.420,132.411 210.200 C 132.245 209.980,132.086 209.530,132.058 209.200 C 132.030 208.870,131.940 208.240,131.858 207.800 C 130.962 202.995,130.857 196.956,131.585 192.000 C 131.827 190.350,132.105 188.370,132.203 187.600 C 132.301 186.830,132.547 185.525,132.749 184.700 C 132.951 183.875,133.023 183.200,132.909 183.200 C 132.795 183.200,132.926 182.930,133.200 182.600 C 133.474 182.270,133.595 182.000,133.469 182.000 C 133.344 182.000,133.504 181.370,133.826 180.600 C 134.148 179.830,134.312 179.200,134.191 179.200 C 134.071 179.200,134.197 178.795,134.472 178.300 C 134.747 177.805,134.978 177.280,134.986 177.133 C 134.994 176.987,135.135 176.732,135.300 176.567 C 135.465 176.402,135.600 176.014,135.600 175.705 C 135.600 175.396,135.870 174.873,136.200 174.543 C 136.530 174.213,136.800 173.596,136.800 173.171 C 136.800 172.747,136.980 172.400,137.200 172.400 C 137.420 172.400,137.556 172.265,137.502 172.100 C 137.380 171.724,138.529 170.103,140.600 167.732 C 141.480 166.725,142.297 165.639,142.416 165.321 C 142.534 165.002,142.804 164.721,143.016 164.697 C 143.227 164.673,143.731 164.233,144.135 163.719 C 144.540 163.205,145.350 162.529,145.935 162.218 C 146.521 161.907,147.476 161.201,148.057 160.650 C 148.638 160.098,149.223 159.757,149.357 159.890 C 149.491 160.024,149.600 159.923,149.600 159.667 C 149.600 159.410,149.870 159.200,150.200 159.200 C 150.530 159.200,150.800 159.020,150.800 158.800 C 150.800 158.580,151.070 158.400,151.400 158.400 C 151.730 158.400,152.000 158.190,152.000 157.933 C 152.000 157.677,152.112 157.579,152.249 157.715 C 152.386 157.852,153.372 157.521,154.440 156.980 C 157.431 155.464,160.578 154.376,162.477 154.201 C 165.835 153.892,173.023 153.472,174.600 153.493 C 178.177 153.541,182.988 154.228,185.000 154.977 C 185.440 155.141,186.340 155.471,187.000 155.711 C 187.660 155.951,188.815 156.556,189.567 157.056 C 190.319 157.556,191.065 157.884,191.225 157.785 C 191.385 157.686,191.619 157.874,191.746 158.202 C 191.872 158.531,192.184 158.800,192.441 158.800 C 192.697 158.800,193.197 159.115,193.553 159.500 C 196.500 162.688,200.248 162.313,203.970 158.456 C 205.884 156.473,206.860 155.366,209.205 152.515 C 209.424 152.248,209.812 151.573,210.066 151.015 C 210.320 150.457,210.650 150.000,210.800 150.000 C 211.111 150.000,214.592 144.681,214.435 144.445 C 214.378 144.359,214.503 144.179,214.713 144.045 C 215.384 143.614,217.972 139.306,217.715 139.048 C 217.578 138.912,217.648 138.800,217.870 138.800 C 218.092 138.800,218.616 138.125,219.034 137.300 C 219.451 136.475,220.048 135.485,220.359 135.100 C 220.968 134.346,219.916 132.558,219.144 133.035 C 218.952 133.154,218.691 132.982,218.565 132.653 C 218.439 132.325,217.855 131.859,217.268 131.618 C 216.681 131.377,214.940 130.462,213.400 129.585 C 211.860 128.708,209.970 127.711,209.200 127.370 C 208.430 127.028,206.990 126.359,206.000 125.883 C 205.010 125.406,203.975 125.038,203.700 125.064 C 203.425 125.090,203.200 124.995,203.200 124.853 C 203.200 124.711,202.615 124.356,201.900 124.064 C 201.185 123.772,200.240 123.364,199.800 123.158 C 199.360 122.952,198.577 122.704,198.059 122.607 C 197.542 122.510,196.867 122.221,196.559 121.966 C 196.252 121.711,196.000 121.636,196.000 121.800 C 196.000 121.964,195.730 121.874,195.400 121.600 C 195.070 121.326,194.800 121.236,194.800 121.400 C 194.800 121.564,194.538 121.480,194.218 121.215 C 193.897 120.949,193.447 120.847,193.218 120.989 C 192.988 121.131,192.800 121.083,192.800 120.883 C 192.800 120.549,188.207 119.115,186.793 119.008 C 186.459 118.983,185.999 118.846,185.770 118.705 C 185.541 118.564,184.529 118.349,183.520 118.228 C 182.511 118.107,181.441 117.921,181.143 117.815 C 179.676 117.296,177.694 117.102,172.000 116.921 C 168.590 116.813,165.677 116.849,165.527 117.002 M37.770 179.963 C 37.640 180.094,37.413 180.210,37.267 180.223 C 36.293 180.305,34.117 180.959,33.700 181.295 C 33.425 181.517,33.197 181.541,33.194 181.349 C 33.191 181.157,33.056 181.202,32.894 181.449 C 32.732 181.696,31.754 182.281,30.719 182.750 C 29.685 183.219,28.695 183.859,28.519 184.173 C 28.344 184.487,28.040 184.711,27.844 184.672 C 27.317 184.566,25.218 187.296,24.960 188.424 C 24.837 188.961,24.639 189.850,24.519 190.400 C 24.236 191.699,24.247 198.228,24.535 199.885 C 25.227 203.866,28.517 209.669,29.676 208.953 C 29.854 208.843,30.000 208.941,30.000 209.171 C 30.000 209.402,31.260 210.224,32.800 211.000 C 34.340 211.776,35.600 212.296,35.600 212.156 C 35.600 212.016,35.870 212.126,36.200 212.400 C 36.530 212.674,36.800 212.764,36.800 212.600 C 36.800 212.436,37.062 212.520,37.382 212.785 C 37.703 213.051,38.153 213.153,38.382 213.011 C 38.612 212.869,38.800 212.905,38.800 213.091 C 38.800 213.277,39.115 213.457,39.500 213.491 C 39.885 213.526,41.190 213.644,42.400 213.754 C 46.381 214.115,52.498 214.476,63.500 214.997 C 65.315 215.083,66.800 215.015,66.800 214.846 C 66.800 214.677,67.366 214.622,68.057 214.723 C 68.748 214.824,69.216 214.748,69.096 214.554 C 68.976 214.359,69.420 214.161,70.083 214.113 C 70.745 214.065,71.493 213.864,71.744 213.668 C 71.995 213.471,72.658 213.201,73.218 213.068 C 75.717 212.473,80.806 208.585,80.911 207.189 C 80.943 206.755,81.213 206.400,81.509 206.400 C 81.805 206.400,81.944 206.232,81.817 206.028 C 81.691 205.823,81.773 205.540,82.000 205.400 C 82.227 205.260,82.318 204.992,82.203 204.805 C 82.087 204.618,82.219 204.225,82.496 203.932 C 83.830 202.523,83.670 194.443,82.254 191.705 C 80.436 188.189,72.151 181.600,69.548 181.600 C 69.225 181.600,68.744 181.384,68.480 181.120 C 68.107 180.747,67.999 180.769,67.994 181.220 C 67.989 181.638,67.903 181.666,67.684 181.322 C 67.294 180.710,62.791 179.987,59.527 180.014 C 58.137 180.025,52.726 179.965,47.503 179.881 C 42.280 179.796,37.900 179.833,37.770 179.963 M92.214 253.296 C 91.873 253.487,91.419 253.535,91.205 253.403 C 90.991 253.271,90.453 253.358,90.008 253.596 C 89.392 253.925,89.199 253.906,89.194 253.514 C 89.190 253.198,89.074 253.154,88.894 253.400 C 88.732 253.620,88.066 253.841,87.414 253.890 C 86.761 253.940,85.951 254.104,85.614 254.256 C 85.276 254.407,84.873 254.546,84.717 254.565 C 84.562 254.584,84.156 254.960,83.816 255.400 L 83.198 256.200 83.467 255.400 C 83.720 254.648,83.690 254.639,82.968 255.253 C 82.546 255.612,81.795 256.029,81.300 256.180 C 80.805 256.330,80.400 256.618,80.400 256.819 C 80.400 257.020,79.674 257.554,78.786 258.007 C 77.818 258.501,77.282 259.009,77.448 259.277 C 77.612 259.543,77.543 259.612,77.276 259.447 C 77.029 259.294,76.138 259.847,75.283 260.685 C 72.257 263.650,68.101 267.407,67.383 267.827 C 66.982 268.061,66.461 268.601,66.227 269.027 C 65.992 269.452,65.530 269.962,65.200 270.159 C 64.179 270.770,59.048 276.240,58.878 276.900 C 58.835 277.065,58.440 277.560,58.000 278.000 C 57.560 278.440,57.200 279.036,57.200 279.325 C 57.200 279.614,56.861 280.559,56.447 281.425 C 54.783 284.902,54.529 291.291,56.017 292.211 C 56.235 292.345,56.292 292.651,56.145 292.889 C 55.997 293.128,56.056 293.213,56.276 293.077 C 56.495 292.941,57.036 293.498,57.477 294.315 C 57.919 295.132,58.487 295.755,58.740 295.700 C 58.993 295.645,59.155 295.807,59.100 296.061 C 59.045 296.314,59.612 296.944,60.359 297.461 C 61.107 297.977,61.602 298.400,61.459 298.400 C 61.317 298.400,61.567 298.767,62.015 299.215 C 62.463 299.663,63.030 299.905,63.276 299.753 C 63.522 299.601,63.616 299.651,63.484 299.865 C 63.186 300.347,65.082 301.503,66.476 301.690 C 67.046 301.766,67.801 302.069,68.156 302.363 C 68.510 302.657,68.800 302.764,68.800 302.600 C 68.800 302.436,69.070 302.526,69.400 302.800 C 69.730 303.074,70.000 303.164,70.000 303.000 C 70.000 302.836,70.238 302.900,70.530 303.142 C 70.916 303.462,71.186 303.454,71.530 303.110 C 71.837 302.803,72.000 302.789,72.000 303.068 C 72.000 303.523,74.137 303.412,74.931 302.915 C 75.189 302.754,75.580 302.584,75.800 302.537 C 76.020 302.491,76.771 302.277,77.470 302.063 C 78.168 301.848,78.843 301.777,78.970 301.903 C 79.096 302.030,79.200 301.913,79.200 301.643 C 79.200 301.373,79.380 301.264,79.600 301.400 C 79.820 301.536,80.000 301.449,80.000 301.206 C 80.000 300.963,80.225 300.814,80.500 300.873 C 81.112 301.005,84.400 299.185,84.400 298.713 C 84.400 298.527,84.745 298.245,85.167 298.087 C 85.588 297.929,86.803 296.975,87.867 295.967 C 88.930 294.960,90.205 293.918,90.700 293.653 C 91.195 293.389,91.600 292.908,91.600 292.586 C 91.600 292.264,91.747 292.045,91.927 292.100 C 92.434 292.255,95.177 289.714,94.871 289.374 C 94.722 289.208,94.823 289.200,95.097 289.357 C 95.626 289.662,97.600 287.956,97.600 287.195 C 97.600 286.952,97.766 286.855,97.968 286.980 C 98.170 287.105,98.913 286.531,99.618 285.704 C 100.323 284.877,100.774 284.470,100.620 284.800 C 100.465 285.130,100.733 284.950,101.215 284.400 C 101.696 283.850,102.205 283.477,102.345 283.572 C 102.690 283.803,104.779 280.689,104.539 280.301 C 104.435 280.133,104.631 279.886,104.975 279.754 C 105.319 279.622,105.600 279.264,105.600 278.957 C 105.600 278.651,105.780 278.400,106.000 278.400 C 106.220 278.400,106.401 278.175,106.402 277.900 C 106.403 277.625,106.857 276.506,107.411 275.413 C 107.966 274.321,108.330 273.196,108.222 272.913 C 108.114 272.631,108.219 272.400,108.455 272.400 C 108.692 272.400,108.790 272.152,108.674 271.849 C 108.558 271.546,108.618 271.141,108.807 270.949 C 109.472 270.277,109.567 266.531,108.942 265.639 C 108.619 265.177,108.462 264.623,108.595 264.408 C 109.087 263.611,105.354 257.855,104.546 258.165 C 104.215 258.292,104.000 258.104,103.999 257.687 C 103.998 256.981,101.858 255.321,101.179 255.500 C 100.971 255.555,100.800 255.360,100.800 255.067 C 100.800 254.773,100.530 254.503,100.200 254.467 C 99.870 254.430,99.338 254.370,99.018 254.333 C 98.697 254.297,98.528 254.117,98.641 253.933 C 98.755 253.750,98.702 253.580,98.524 253.555 C 98.149 253.503,96.444 253.318,94.318 253.100 C 93.502 253.017,92.556 253.105,92.214 253.296 " stroke="none" fill="#fccc3c" fill-rule="evenodd"></path><path id="path1" d="M60.233 94.011 C 59.592 94.665,59.211 95.200,59.387 95.200 C 59.714 95.200,61.600 93.307,61.600 92.979 C 61.600 92.665,61.425 92.797,60.233 94.011 M58.000 118.349 C 58.000 118.574,58.450 119.244,59.000 119.838 C 59.550 120.431,60.000 120.782,60.000 120.616 C 60.000 120.451,59.550 119.781,59.000 119.127 C 58.450 118.473,58.000 118.123,58.000 118.349 M310.493 135.600 C 310.493 136.370,310.575 136.685,310.676 136.300 C 310.776 135.915,310.776 135.285,310.676 134.900 C 310.575 134.515,310.493 134.830,310.493 135.600 M376.497 164.340 C 376.177 164.538,376.277 164.780,376.816 165.117 C 377.459 165.519,377.600 165.503,377.600 165.027 C 377.600 164.286,377.094 163.971,376.497 164.340 M376.531 167.651 C 376.645 168.009,376.536 168.504,376.289 168.751 C 375.971 169.069,375.968 169.200,376.277 169.200 C 376.918 169.200,377.188 168.215,376.725 167.564 C 376.399 167.105,376.363 167.121,376.531 167.651 M376.643 170.233 C 376.509 170.580,376.670 171.250,377.000 171.722 L 377.600 172.578 377.600 171.689 C 377.600 171.200,377.426 170.800,377.213 170.800 C 376.999 170.800,376.929 170.530,377.055 170.200 C 377.182 169.870,377.196 169.600,377.086 169.600 C 376.976 169.600,376.776 169.885,376.643 170.233 M376.590 177.130 C 376.759 178.096,376.692 178.381,376.349 178.169 C 376.052 177.985,375.983 178.048,376.162 178.338 C 376.602 179.051,377.602 178.884,377.587 178.100 C 377.580 177.715,377.301 177.040,376.966 176.600 C 376.391 175.844,376.371 175.872,376.590 177.130 M324.352 184.912 C 324.545 185.105,325.219 185.198,325.851 185.119 C 326.909 184.987,326.881 184.959,325.500 184.768 C 324.640 184.649,324.150 184.710,324.352 184.912 M332.305 185.083 C 332.802 185.179,333.522 185.175,333.905 185.075 C 334.287 184.975,333.880 184.896,333.000 184.901 C 332.120 184.905,331.807 184.987,332.305 185.083 M339.700 185.076 C 340.085 185.176,340.715 185.176,341.100 185.076 C 341.485 184.975,341.170 184.893,340.400 184.893 C 339.630 184.893,339.315 184.975,339.700 185.076 M315.489 197.691 C 315.710 197.971,315.848 198.650,315.795 199.200 C 315.742 199.750,315.838 200.459,316.008 200.777 C 316.190 201.115,316.305 200.584,316.288 199.492 C 316.268 198.248,316.065 197.557,315.673 197.407 C 315.243 197.242,315.194 197.318,315.489 197.691 M328.618 214.829 C 328.784 215.098,330.800 214.837,330.800 214.547 C 330.800 214.459,330.272 214.427,329.628 214.477 C 328.983 214.526,328.529 214.684,328.618 214.829 M250.000 244.914 C 250.000 245.223,250.360 245.802,250.800 246.200 C 251.254 246.611,251.600 246.724,251.600 246.462 C 251.600 246.208,251.420 246.000,251.200 246.000 C 250.980 246.000,250.800 245.741,250.800 245.424 C 250.800 245.107,250.620 244.736,250.400 244.600 C 250.180 244.464,250.000 244.606,250.000 244.914 M335.505 248.283 C 336.002 248.379,336.722 248.375,337.105 248.275 C 337.487 248.175,337.080 248.096,336.200 248.101 C 335.320 248.105,335.007 248.187,335.505 248.283 M351.300 248.276 C 351.685 248.376,352.315 248.376,352.700 248.276 C 353.085 248.175,352.770 248.093,352.000 248.093 C 351.230 248.093,350.915 248.175,351.300 248.276 M98.536 254.138 C 98.391 254.392,98.414 254.471,98.588 254.314 C 98.763 254.157,99.242 254.208,99.653 254.428 C 100.083 254.659,100.400 254.672,100.400 254.461 C 100.400 253.890,98.833 253.618,98.536 254.138 M107.160 261.000 C 107.834 262.305,108.388 263.028,108.385 262.600 C 108.383 262.380,108.014 261.750,107.564 261.200 C 107.021 260.536,106.885 260.469,107.160 261.000 M55.200 291.480 C 55.200 291.712,55.474 292.130,55.810 292.408 C 56.145 292.686,56.334 293.000,56.229 293.105 C 56.124 293.209,56.308 293.565,56.638 293.895 C 57.722 294.979,57.562 294.226,56.369 292.626 C 55.726 291.763,55.200 291.248,55.200 291.480 M60.600 298.400 C 60.998 298.840,61.521 299.197,61.762 299.194 C 62.003 299.191,61.930 299.013,61.600 298.800 C 61.270 298.587,61.180 298.407,61.400 298.400 C 61.882 298.385,60.755 297.615,60.238 297.606 C 60.039 297.603,60.202 297.960,60.600 298.400 M65.628 301.761 C 66.363 302.496,68.778 303.157,69.043 302.696 C 69.200 302.423,69.181 302.333,69.001 302.497 C 68.821 302.660,68.412 302.576,68.093 302.311 C 67.534 301.847,65.191 301.325,65.628 301.761 " stroke="none" fill="#fcc43c" fill-rule="evenodd"></path><path id="path2" d="" stroke="none" fill="#100cc3c" fill-rule="evenodd"></path><path id="path3" d="" stroke="none" fill="#100cc3c" fill-rule="evenodd"></path><path id="path4" d="" stroke="none" fill="#100cc3c" fill-rule="evenodd"></path></g></svg>